<?xml version="1.0" encoding="UTF-8"?>
<svg id="export" xmlns="http://www.w3.org/2000/svg" viewBox="0 0 1080.31 1080.31">
  <defs>
    <style>
      .cls-1 {
      fill: #c380ff;
      }

      .cls-1, .cls-2, .cls-3, .cls-4, .cls-5 {
      stroke-width: 0px;
      }

      .cls-2 {
      fill: #dcb5ff;
      }

      .cls-3 {
      fill: #e7ccff;
      }

      .cls-4 {
      fill: #624c9a;
      }

      .cls-5 {
      fill: #372d66;
      }
    </style>
  </defs>
  <g id="old" transform="translate(-16.72, -119.44)">
    <rect class="cls-5" x="16.72" y="119.44" width="1080.31" height="1080.31"/>
    <path class="cls-4" d="m72.31,119.44c-3,.05-6.03.08-9.05.08-15.75,0-31.28.91-46.54,2.72v696.24c148.51-21.05,262.73-148.69,262.73-303.01,0-108.77,44.09-207.27,115.37-278.55,71.28-71.3,169.76-115.39,278.55-115.39,8.93,0,17.59-.73,25.94-2.09H72.31Z"/>
    <path class="cls-1" d="m72.31,119.44c-3,.05-6.03.08-9.05.08-15.75,0-31.28.91-46.54,2.72v152.97c15.17-2.9,30.74-4.39,46.54-4.39,44.46,0,87.88-4.54,129.81-13.18-41.41,76.82-64.92,164.63-64.92,257.84,0,70.3-47.11,129.81-111.42,148.59v154.42c67.16-9.52,127.32-40.85,173.09-86.59,55.38-55.38,89.65-131.9,89.65-216.42,0-108.77,44.09-207.27,115.37-278.55,71.28-71.3,169.76-115.39,278.55-115.39,8.93,0,17.59-.73,25.94-2.09H72.31Z"/>
    <path class="cls-1" d="m793.53,1176.59c-46.93,0-91.96,8.17-133.74,23.16h437.24v-128.3c-83.5,65.85-188.9,105.14-303.5,105.14Z"/>
    <path class="cls-1" d="m1003.74,205.07c-34.96-34.98-74.76-63.69-118.6-85.63h-409.61c-43.84,21.93-83.64,50.66-118.61,85.63-41.95,41.95-74.91,90.85-97.95,145.32-23.89,56.5-36,116.4-36,178.08,0,121.42-89.65,222.29-206.24,239.9v152.39c94.26-8.64,178.91-50.47,242.16-113.74,71.3-71.28,115.39-169.78,115.39-278.55,0-84.52,34.25-161.03,89.65-216.42,55.38-55.38,131.9-89.65,216.42-89.65,169.03,0,306.07,137.03,306.07,306.07,0,109.35-44.31,208.33-115.96,279.99-71.65,71.65-170.64,115.96-279.99,115.96-135.46,0-258.09,54.91-346.86,143.68-38.18,38.18-70.09,82.61-94.05,131.65h178.88c62.27-75.69,156.61-124.02,262.04-124.02,73.82,0,145.5-14.5,213.06-43.08,65.19-27.56,123.7-67.01,173.91-117.21,50.2-50.22,89.65-108.72,117.21-173.91.81-1.92,1.62-3.85,2.4-5.77v-396.02c-22.75-50.22-54.08-95.47-93.29-134.67Z"/>
    <path class="cls-4" d="m680.34,171.97c-196.58,0-356.5,159.92-356.5,356.5,0,177.12-134.75,323.37-307.11,341.58v101.33c104.98-8.44,202.54-53.41,277.83-128.69,83.93-83.93,130.14-195.52,130.14-314.22,0-140.96,114.68-255.65,255.65-255.65s255.63,114.68,255.63,255.65c0,190.52-154.99,345.51-345.51,345.51-144.49,0-280.36,56.28-382.53,158.45-48.95,48.97-87.37,105.65-114.11,167.31h112.84c75.49-134.11,219.24-224.89,383.8-224.89,119.24,0,231.34-46.44,315.64-130.75,84.31-84.3,130.75-196.4,130.75-315.64,0-196.58-159.92-356.5-356.5-356.5Z"/>
    <path class="cls-2" d="m471.36,119.44c-40.93,20.91-78.76,48.38-112.2,81.82-83.93,83.93-130.14,195.52-130.14,314.22,0,126.19-91.91,231.3-212.3,251.95v101.92c176.21-21.44,313.15-171.95,313.15-353.87s154.1-343.5,343.5-343.5c39.23,0,77.07-10.85,109.45-31.36,9.86-6.25,19.14-13.34,27.75-21.17h-339.22Zm-179.2,0H16.72v53.63c15.23-2.06,30.76-3.12,46.54-3.12,80.42,0,158.16-17.42,228.91-50.5Z"/>
    <path class="cls-2" d="m793.53,1126.15c-88.72,0-173.49,25.71-245.79,73.6h416.24c47.06-15.56,91.78-37.61,133.05-65.7v-129.57c-79.01,75.35-185.95,121.67-303.5,121.67Z"/>
    <path class="cls-3" d="m624.41,695.06c-8.71,0-17.41-2.25-25.22-6.76-15.6-9.01-25.22-25.66-25.22-43.68v-174.7c0-18.02,9.61-34.67,25.22-43.68,15.6-9.01,34.83-9.01,50.43,0l151.3,87.35c15.6,9.01,25.22,25.66,25.22,43.68s-9.61,34.67-25.22,43.68l-151.3,87.35c-7.8,4.5-16.51,6.76-25.22,6.76Zm50.43-137.79h0Z"/>
  </g>
</svg>