<?xml version="1.0" encoding="UTF-8"?>
<svg id="export" xmlns="http://www.w3.org/2000/svg" viewBox="0 0 750 750">
  <defs>
    <style>
      .cls-1 {
      stroke-width: 70.88px;
      }

      .cls-1, .cls-2 {
      fill: none;
      stroke: #fff;
      stroke-linecap: round;
      stroke-linejoin: round;
      }

      .cls-2 {
      stroke-width: 68.43px;
      }
    </style>
  </defs>
  <g id="b" transform="translate(-345, -520)">
    <path class="cls-1" d="m501.86,608.28c-21.07,38.21-33.06,82.13-33.06,128.85h0c0,55.95-22.13,106.73-58.11,144.07"/>
    <path class="cls-1" d="m410.69,1038.41c113.06-31.15,196.11-134.71,196.11-257.68h0c0-71.67,36.31-134.87,91.55-172.18,33.14-22.39,73.09-35.46,116.09-35.46h0c42.83,0,82.64,12.97,115.7,35.2,41.57,27.94,72.48,70.52,85.35,120.35,4.3,16.65,6.59,34.11,6.59,52.1h0c0,20.41-2.28,40.28-6.59,59.38-27.03,119.78-134.08,209.24-262.03,209.24h0c-122.08,0-228.81,65.73-286.72,163.74"/>
    <path class="cls-1" d="m673.71,1213.08c37.04-19.26,79.13-30.15,123.76-30.15h0c83.39,0,159.62-30.67,218.02-81.35"/>
    <polygon class="cls-2" points="879.14 800.27 776.5 741.01 776.5 859.53 879.14 800.27"/>
  </g>
</svg>