<?xml version="1.0" standalone="no"?>
<!DOCTYPE svg PUBLIC "-//W3C//DTD SVG 20010904//EN"
 "http://www.w3.org/TR/2001/REC-SVG-20010904/DTD/svg10.dtd">
<svg version="1.0" xmlns="http://www.w3.org/2000/svg"
 width="512.000000pt" height="512.000000pt" viewBox="0 0 512.000000 512.000000"
 preserveAspectRatio="xMidYMid meet">

<g transform="translate(0.000000,512.000000) scale(0.100000,-0.100000)"
fill="#000000" stroke="none">
<path d="M1961 4573 c-6 -21 -11 -46 -11 -56 0 -10 -8 -53 -19 -95 -10 -43
-28 -124 -40 -182 -12 -58 -33 -152 -46 -210 -12 -58 -32 -148 -43 -200 -12
-52 -35 -156 -51 -230 -17 -74 -34 -153 -39 -175 l-8 -40 -149 -6 c-160 -7
-234 -21 -347 -69 -243 -104 -371 -303 -356 -554 9 -143 88 -274 219 -363 117
-81 217 -119 509 -196 l125 -33 3 -391 2 -391 -26 -6 c-51 -13 -294 14 -364
41 -82 31 -151 75 -185 118 -30 41 -75 133 -75 156 0 25 -21 29 -147 29 l-115
0 7 -42 c23 -137 131 -296 254 -375 125 -80 338 -133 537 -133 l114 0 0 -335
0 -335 115 0 115 0 0 355 0 356 22 8 c18 7 34 -2 87 -47 109 -93 271 -152 414
-152 78 0 241 44 305 82 139 84 272 249 328 409 l29 84 3 579 3 578 62 -59
c84 -81 157 -127 252 -159 69 -23 97 -27 200 -28 138 0 224 21 330 83 129 74
254 232 313 394 24 67 26 84 26 242 0 162 -1 174 -28 245 -100 269 -321 455
-564 477 -37 3 -72 10 -79 15 -6 5 -14 28 -18 51 -4 23 -15 80 -26 127 -10 47
-30 139 -44 205 -15 66 -34 153 -42 193 l-17 72 -86 0 -86 0 -27 -72 c-41
-113 -107 -290 -118 -318 -6 -14 -34 -86 -62 -160 l-52 -135 -77 -3 -77 -3 -3
-212 -3 -212 -38 -95 c-21 -52 -59 -148 -84 -213 -51 -131 -48 -130 -87 -24
-30 81 -233 612 -251 657 -7 19 -30 78 -50 130 -21 52 -52 133 -70 180 -37 93
-98 255 -148 393 l-32 87 -87 0 -87 0 -10 -37z m202 -633 c36 -91 103 -264
150 -385 47 -121 120 -307 162 -414 42 -106 82 -210 90 -230 7 -20 34 -90 60
-156 26 -66 58 -149 71 -185 30 -79 40 -91 53 -59 5 13 34 87 64 164 30 77 63
163 73 190 l19 50 3 -309 c1 -170 0 -311 -3 -314 -3 -3 -22 11 -43 30 -46 45
-168 111 -246 133 -46 14 -86 16 -185 13 -170 -6 -228 -29 -402 -156 -15 -11
-24 -11 -53 -1 -36 13 -36 14 -36 71 l0 58 -115 0 c-108 0 -115 -1 -115 -20 0
-24 3 -24 -74 -4 -227 58 -385 127 -459 200 -68 67 -87 116 -87 224 0 111 23
163 102 235 61 55 104 76 205 99 76 17 263 22 263 7 0 -5 26 -12 58 -16 68 -8
177 -40 212 -62 42 -26 82 -75 107 -130 l24 -53 119 0 c138 0 133 -9 69 126
-48 102 -143 195 -256 251 -67 33 -74 39 -68 61 9 37 54 249 71 331 8 41 21
100 29 131 8 31 21 91 29 132 17 90 36 161 41 157 2 -2 32 -78 68 -169z m1222
138 c29 -132 35 -160 35 -163 0 -2 -20 -13 -45 -24 -24 -11 -61 -32 -82 -48
-32 -24 -36 -25 -30 -8 46 124 103 265 109 265 4 0 10 -10 13 -22z m457 -411
c76 -40 163 -133 206 -217 67 -133 67 -312 -1 -449 -34 -70 -137 -189 -154
-178 -5 4 -16 35 -22 69 -7 35 -21 101 -31 148 -10 47 -31 139 -45 205 -23
107 -51 235 -90 407 -7 31 -11 59 -8 61 9 10 89 -15 145 -46z m-363 -14 c5
-27 20 -93 31 -148 36 -172 81 -375 124 -570 13 -60 28 -132 34 -159 l10 -49
-92 6 c-111 6 -180 31 -257 92 -106 84 -161 177 -189 320 -30 147 33 339 146
447 41 39 150 108 170 108 7 0 17 -21 23 -47z m-964 -1418 c97 -18 161 -53
239 -131 92 -92 132 -176 150 -316 8 -66 -17 -197 -51 -264 -59 -120 -186
-226 -307 -259 -109 -29 -276 -10 -353 40 -21 14 -21 15 46 82 111 113 161
237 161 403 0 149 -39 248 -138 352 -52 55 -53 57 -32 68 24 13 139 38 182 39
14 1 61 -6 103 -14z m-425 -261 c59 -55 80 -110 80 -207 0 -102 -24 -167 -85
-232 -28 -30 -56 -55 -63 -55 -6 0 -21 19 -33 43 -45 86 -61 231 -38 339 15
69 57 158 76 158 7 0 36 -21 63 -46z"/>
</g>
</svg>
